<?xml version="1.0" encoding="UTF-8"?>
<svg id="Layer_2" data-name="Layer 2" xmlns="http://www.w3.org/2000/svg" viewBox="0 0 606.79 350.48">
  <defs>
    <style>
      .cls-1 {
        fill: none;
      }

      .cls-1, .cls-2 {
        stroke-width: 0px;
      }

      .cls-2 {
        fill: #fff;
      }
    </style>
  </defs>
  <g id="Layer_1-2" data-name="Layer 1">
    <g>
      <g>
        <path class="cls-2" d="M43.31,341.63c0,3.12,2.55,5.67,5.67,5.67h5.67v-3.38h-5.67v-3.15h8.82v9.68h-8.82c-4.87,0-8.82-3.96-8.82-8.82s3.96-8.82,8.82-8.82h8.82v3.15h-8.82c-3.13,0-5.67,2.55-5.67,5.67Z"/>
        <path class="cls-2" d="M87.43,350.46h-3.53l-1.61-3.15-3.86-7.56-3.86,7.56-1.61,3.15h-3.53l1.61-3.15,7.39-14.49,7.39,14.49,1.61,3.15Z"/>
        <path class="cls-2" d="M114.73,332.81v8.82c0,4.86-3.96,8.82-8.82,8.82s-8.82-3.96-8.82-8.82v-8.82h3.15v8.82c0,3.12,2.55,5.67,5.67,5.67s5.67-2.55,5.67-5.67v-8.82h3.15Z"/>
        <path class="cls-2" d="M140.88,337.7v-.1c0-.88-.73-1.61-1.61-1.61h-7.16c-.88,0-1.61.73-1.61,1.61v.1c0,.88.73,1.61,1.61,1.61h6.35c1.64,0,3.1.71,4.11,1.81.08.08.13.15.2.23.78.96,1.26,2.19,1.26,3.53,0,3.08-2.5,5.57-5.57,5.57h-5.52c-3.08,0-5.57-2.5-5.57-5.57h3.15c0,1.34,1.08,2.42,2.42,2.42h5.52c1.34,0,2.45-1.08,2.45-2.42s-1.11-2.42-2.45-2.42h-6.35c-1.29,0-2.45-.5-3.3-1.34-.23-.23-.43-.48-.61-.76-.53-.76-.83-1.69-.83-2.7v-.1c0-2.62,2.12-4.76,4.74-4.76h7.16c2.62,0,4.76,2.14,4.76,4.76v.1l-3.15.03Z"/>
        <path class="cls-2" d="M170.18,337.7v-.1c0-.88-.73-1.61-1.61-1.61h-7.16c-.88,0-1.61.73-1.61,1.61v.1c0,.88.73,1.61,1.61,1.61h6.35c1.64,0,3.1.71,4.11,1.81.08.08.13.15.2.23.78.96,1.26,2.19,1.26,3.53,0,3.08-2.5,5.57-5.57,5.57h-5.52c-3.08,0-5.57-2.5-5.57-5.57h3.15c0,1.34,1.08,2.42,2.42,2.42h5.52c1.34,0,2.45-1.08,2.45-2.42s-1.11-2.42-2.45-2.42h-6.35c-1.29,0-2.45-.5-3.3-1.34-.23-.23-.43-.48-.61-.76-.53-.76-.83-1.69-.83-2.7v-.1c0-2.62,2.12-4.76,4.74-4.76h7.16c2.62,0,4.76,2.14,4.76,4.76v.1l-3.15.03Z"/>
        <path class="cls-2" d="M185.94,350.46v-17.65h3.15v17.65h-3.15Z"/>
        <path class="cls-2" d="M218.71,350.46h-3.53l-1.61-3.15-3.86-7.56-3.86,7.56-1.61,3.15h-3.53l1.61-3.15,7.39-14.49,7.39,14.49,1.61,3.15Z"/>
        <path class="cls-2" d="M247.96,332.84v17.65l-3.15-2.42-11.34-8.75v11.17h-3.15v-17.59l3.15,2.42,11.34,8.75v-11.24l3.15.03Z"/>
        <path class="cls-2" d="M296.47,337.7v-.1c0-.88-.73-1.61-1.61-1.61h-7.16c-.88,0-1.61.73-1.61,1.61v.1c0,.88.73,1.61,1.61,1.61h6.35c1.64,0,3.1.71,4.11,1.81.08.08.13.15.2.23.78.96,1.26,2.19,1.26,3.53,0,3.08-2.5,5.57-5.57,5.57h-5.52c-3.08,0-5.57-2.5-5.57-5.57h3.15c0,1.34,1.08,2.42,2.42,2.42h5.52c1.34,0,2.45-1.08,2.45-2.42s-1.11-2.42-2.45-2.42h-6.35c-1.29,0-2.45-.5-3.3-1.34-.23-.23-.43-.48-.61-.76-.53-.76-.83-1.69-.83-2.7v-.1c0-2.62,2.12-4.76,4.74-4.76h7.16c2.62,0,4.76,2.14,4.76,4.76v.1l-3.15.03Z"/>
        <path class="cls-2" d="M326.76,334.25c.86.86,1.39,2.04,1.39,3.35,0,1.92-1.13,3.58-2.77,4.33-.43.2-.88.33-1.36.38h-.15v.02h-8.44v8.12h-3.15v-17.65h11.12c1.31,0,2.5.53,3.35,1.39l.03.05ZM324.06,339.06c.58-.25.96-.83.96-1.46,0-.58-.3-.98-.48-1.16-.2-.2-.58-.45-1.13-.45h-7.99v3.25h7.99c.23,0,.45-.05.66-.15v-.03Z"/>
        <path class="cls-2" d="M355.27,347.33v3.15h-8.95c-.88,0-1.71-.2-2.47-.58-1.11-.55-2.02-1.46-2.55-2.57-.38-.76-.58-1.59-.58-2.47v-12.02h3.15v12.33c.15,1.11,1.03,1.99,2.14,2.14l9.25.03Z"/>
        <path class="cls-2" d="M384.9,350.46h-3.53l-1.61-3.15-3.86-7.56-3.86,7.56-1.61,3.15h-3.53l1.61-3.15,7.39-14.49,7.39,14.49,1.61,3.15Z"/>
        <path class="cls-2" d="M409.13,332.84v3.15h-7.24v14.49h-3.15v-14.49h-7.23v-3.15h17.62Z"/>
        <path class="cls-2" d="M447.28,337.58v1.64h11.34v3.15h-11.34v3.33c0,.88.73,1.61,1.61,1.61h12.88v3.15h-12.88c-2.62,0-4.74-2.14-4.74-4.76v-8.12c0-2.62,2.12-4.76,4.74-4.76h12.88v3.15h-12.88c-.88,0-1.61.73-1.61,1.61Z"/>
        <path class="cls-2" d="M483.18,332.84c4.87,0,8.82,3.93,8.82,8.8,0,2.17-.78,4.16-2.09,5.7-.15.18-.33.35-.5.53-1.59,1.61-3.78,2.6-6.2,2.6h-8.82v-17.65l8.8.03ZM477.51,347.33h5.67c3.13,0,5.67-2.55,5.67-5.67s-2.55-5.67-5.67-5.67h-5.67v11.34Z"/>
        <path class="cls-2" d="M504.64,350.46v-17.65h3.15v17.65h-3.15Z"/>
        <path class="cls-2" d="M538.02,332.84v3.15h-7.24v14.49h-3.15v-14.49h-7.23v-3.15h17.62Z"/>
        <path class="cls-2" d="M566.01,341.63c0,4.86-3.96,8.82-8.82,8.82s-8.82-3.96-8.82-8.82,3.96-8.82,8.82-8.82,8.82,3.96,8.82,8.82ZM562.86,341.63c0-3.13-2.55-5.67-5.67-5.67s-5.67,2.55-5.67,5.67,2.55,5.67,5.67,5.67,5.67-2.55,5.67-5.67Z"/>
        <path class="cls-2" d="M592.23,347.33l1.61,3.15h-3.53l-1.61-3.15-1.69-3.3-.08-.15c-.55-.91-1.54-1.51-2.67-1.51h-3.15v8.12h-3.15v-17.65h11.14c1.31,0,2.5.53,3.35,1.39.86.88,1.39,2.07,1.39,3.38,0,1.92-1.13,3.58-2.77,4.33-.43.2-.88.33-1.36.38l2.52,5.02ZM589.1,339.21c.23,0,.45-.05.66-.15.58-.25.96-.83.96-1.46,0-.58-.3-.98-.48-1.16-.2-.2-.58-.45-1.13-.45h-7.99v3.25l7.99-.02Z"/>
      </g>
      <g>
        <path class="cls-2" d="M254.9,46.49h-23.24v56.17c0,4.26-.39,11.62,7.75,15.5l30.99,15.5c23.63,11.62,34.87,25.57,34.87,56.95v57.33c0,38.74-7.75,61.98-38.74,61.98h-46.49c-30.99,0-38.74-23.24-38.74-61.98v-62.37c0-1.16.78-1.94,1.94-1.94h46.49c1.16,0,1.94.78,1.94,1.94v77.86h23.24v-71.67c0-4.26.39-11.62-7.75-15.5l-30.99-15.5c-23.63-11.62-34.87-25.57-34.87-56.95v-41.84C181.3,23.24,189.05,0,220.04,0h46.49C297.52,0,305.26,23.24,305.26,61.98v46.87c0,1.16-.77,1.94-1.94,1.94h-46.49c-1.16,0-1.94-.77-1.94-1.94v-62.37Z"/>
        <path class="cls-2" d="M442.79,0c1.16,0,1.94.77,1.94,1.94v306.04c0,1.16-.77,1.94-1.94,1.94h-46.49c-1.16,0-1.94-.78-1.94-1.94v-129.77h-23.24v129.77c0,1.16-.77,1.94-1.94,1.94h-46.49c-1.16,0-1.94-.78-1.94-1.94V1.94C320.76.77,321.54,0,322.7,0h46.49c1.16,0,1.94.77,1.94,1.94v129.77h23.24V1.94C394.36.77,395.14,0,396.3,0h46.49Z"/>
      </g>
      <g>
        <rect class="cls-1" x="92.2" y="46.49" width="23.24" height="89.49"/>
        <path class="cls-2" d="M127.06,0H43.78c-1.16,0-1.94.77-1.94,1.94v137.34c12.22,7.01,20.47,20.18,20.47,35.24s-8.25,28.23-20.47,35.24v98.21c0,1.16.78,1.94,1.94,1.94h46.49c1.16,0,1.94-.78,1.94-1.94v-125.51h34.86c30.99,0,38.74-23.24,38.74-61.98v-58.5c0-38.74-7.75-61.98-38.74-61.98ZM115.45,135.97h-23.24V46.49h23.24v89.49Z"/>
        <path class="cls-2" d="M41.84,166.47c-3.21-7.99-11.02-13.64-20.14-13.64-11.96,0-21.7,9.73-21.7,21.7s9.73,21.7,21.7,21.7c9.12,0,16.94-5.66,20.14-13.64,1-2.49,1.56-5.21,1.56-8.05s-.56-5.56-1.56-8.05Z"/>
      </g>
      <g>
        <path class="cls-2" d="M544.48,174.52c0-15.78,9.06-29.48,22.24-36.2L595.03,1.94c.39-1.16-.39-1.94-1.55-1.94h-48.04c-1.16,0-1.94.77-2.32,1.94l-24.79,127.84h-7.75V1.94c0-1.16-.78-1.94-1.94-1.94h-46.49c-1.16,0-1.94.77-1.94,1.94v306.04c0,1.16.78,1.94,1.94,1.94h46.49c1.16,0,1.94-.78,1.94-1.94v-127.84h7.75l24.79,127.84c.39,1.16,1.16,1.94,2.32,1.94h48.04c1.16,0,1.94-.39,1.55-1.94l-19.51-93.99c-17.79-4.31-31.04-20.36-31.04-39.46Z"/>
        <path class="cls-2" d="M585.09,152.82c-8.69,0-16.2,5.14-19.66,12.54-1.3,2.79-2.03,5.89-2.03,9.16,0,6.44,2.83,12.24,7.3,16.22,3.83,3.41,8.88,5.48,14.4,5.48,11.96,0,21.7-9.73,21.7-21.7s-9.73-21.7-21.7-21.7Z"/>
      </g>
    </g>
  </g>
</svg>