<?xml version="1.0" encoding="UTF-8"?>
<svg id="Layer_1" data-name="Layer 1" xmlns="http://www.w3.org/2000/svg" version="1.1" viewBox="0 0 24 24">
  <defs>
    <style>
      .cls-1 {
        fill: none;
        stroke: #000;
        stroke-linecap: round;
        stroke-linejoin: round;
        stroke-width: 2px;
      }
    </style>
  </defs>
  <path class="cls-1" d="M3,21v-4c0-2.2,1.8-4,4-4s4,1.8,4,4-1.8,4-4,4H3"/>
  <path class="cls-1" d="M21,3c-5.8.8-10.7,4.7-12.8,10.2"/>
  <path class="cls-1" d="M21,3c-.8,5.8-4.7,10.7-10.2,12.8"/>
  <path class="cls-1" d="M10.6,9c1.9.9,3.5,2.5,4.4,4.4"/>
  <g>
    <path class="cls-1" d="M16,20h0"/>
    <path class="cls-1" d="M4,8h0"/>
    <path class="cls-1" d="M4,4h0"/>
    <path class="cls-1" d="M8,4h0"/>
    <path class="cls-1" d="M20,16h0"/>
    <path class="cls-1" d="M20,20h0"/>
  </g>
</svg>